<svg width="370" height="225" viewBox="0 0 370 225" fill="none" xmlns="http://www.w3.org/2000/svg">
<path d="M228.571 183.806C193.593 205.115 160.941 205.544 152.049 207.676C138.643 210.889 139.395 216.24 96.8615 224.953C86.7246 227.081 65.6426 228.876 63.3353 229.069C63.1922 229.081 63.0838 229.112 62.9583 229.181C60.5499 230.518 33.151 245.601 11.8594 251.647L5.14646 243.964C4.65758 243.404 4.9302 242.525 5.64672 242.328C57.5982 228.061 96.6903 182.061 228.571 183.806Z" fill="#C29F79"/>
<path fill-rule="evenodd" clip-rule="evenodd" d="M224.128 229.967C224.531 229.854 224.822 229.502 224.856 229.085L228.571 183.806C193.593 205.115 160.941 205.544 152.049 207.676C138.643 210.889 139.395 216.24 96.8615 224.953L63.8211 241.476L26.0772 255.249L81.9878 269.487C82.1572 269.53 82.3349 269.528 82.5033 269.481L224.128 229.967Z" fill="#937D6F"/>
<path d="M11.8594 251.647C33.151 245.601 60.5499 230.518 62.9583 229.181C63.0838 229.112 63.1922 229.081 63.3353 229.069C65.6426 228.876 86.7246 227.081 96.8615 224.953L63.8211 241.476L26.0772 255.249L11.8594 251.647Z" fill="#711008"/>
<path d="M367.438 186.531L356.677 231.755C356.573 232.195 356.186 232.51 355.735 232.523L207.089 237.054C210.186 231.555 214.639 222.93 224.905 216.631C258.681 210.129 281.475 211.79 293.86 206.735C300.373 204.078 334.551 199.603 367.438 186.531Z" fill="#937D6F"/>
<path d="M113.956 235.556C181.035 220.262 180.768 225.887 224.905 216.631C193.214 227.22 168.676 226.628 160.403 236.296C143.25 235.849 128.707 236.659 113.956 235.556Z" fill="#5E4F4B"/>
<path d="M113.956 235.556C97.3741 235.356 71.2579 236.313 54.3946 237.942C53.8555 237.994 53.3782 237.609 53.3094 237.072L52.281 229.033C107.608 222.497 110.257 228.78 113.839 226.325C116.612 224.424 138.055 218.949 149.442 216.202C135.87 220.984 119.282 230.502 113.956 235.556Z" fill="#5E4F4B"/>
<path d="M367.438 186.531C334.551 199.603 300.373 204.078 293.86 206.735C281.475 211.79 258.681 210.129 224.905 216.631C180.768 225.887 181.035 220.262 113.956 235.556C119.282 230.502 135.87 220.984 149.442 216.202C138.055 218.949 116.612 224.424 113.839 226.325C110.257 228.78 107.608 222.497 52.281 229.033C93.9783 209.41 199.19 190.421 367.438 186.531Z" fill="#C29F79"/>
<path d="M224.905 216.631C214.639 222.93 210.186 231.555 207.089 237.054C207.089 237.054 185.529 236.951 160.403 236.296C168.676 226.628 193.214 227.22 224.905 216.631Z" fill="#C29F79"/>
<path d="M190.31 176.492L160.518 245.481C160.349 245.873 159.949 246.114 159.522 246.081L16.0715 234.939C20.1432 226.533 26.1101 213.295 37.7441 204.624C73.7988 198.972 97.1863 204.887 110.824 198.519C117.995 195.171 154.15 192.837 190.31 176.492Z" fill="#937D6F"/>
<path d="M-80.31 219.276C-8.33298 204.222 -9.48969 213.232 37.7441 204.624C3.21421 217.146 -22.1495 212.703 -32.2421 227.076C-49.9669 223.917 -65.1801 223.149 -80.31 219.276Z" fill="#5E4F4B"/>
<path d="M-80.31 219.276C-97.4768 216.597 -124.709 214.42 -142.458 214.639C-143.023 214.646 -143.477 214.187 -143.469 213.622L-143.272 200.009C-84.8553 197.368 -83.0894 207.852 -78.9898 204.412C-75.8158 201.749 -52.7159 195.995 -40.4732 193.195C-55.2996 198.956 -73.9955 211.905 -80.31 219.276Z" fill="#5E4F4B"/>
<path d="M190.31 176.492C154.15 192.837 117.995 195.171 110.824 198.519C97.1863 204.887 73.7988 198.972 37.7441 204.624C-9.48969 213.232 -8.33298 204.222 -80.31 219.276C-73.9955 211.905 -55.2996 198.956 -40.4732 193.195C-52.7159 195.995 -75.8158 201.749 -78.9898 204.412C-83.0894 207.852 -84.8553 197.368 -143.272 200.009C-96.9497 174.378 15.1628 158.806 190.31 176.492Z" fill="#C29F79"/>
<path d="M37.7441 204.624C26.1101 213.295 20.1432 226.533 16.0715 234.939C16.0715 234.939 -6.27915 231.705 -32.2421 227.076C-22.1495 212.703 3.21421 217.146 37.7441 204.624Z" fill="#C29F79"/>
<path d="M11.08 170.558C17.1223 182.618 19.8186 186.185 24.1755 190.5H12.9408C11.6379 182.894 11.1519 178.555 11.08 170.558Z" fill="#921A10"/>
<path d="M51.033 91.9686C63.6971 84.8773 70.8396 82.5603 83.6461 81.0572C69.9823 79.5606 62.8969 82.2438 51.033 91.9686Z" fill="#921A10"/>
<path d="M29.9308 103.872C39.1758 97.7239 44.079 93.2874 52.632 84.6944C45.7731 93.0145 42.7129 96.2645 27.8266 107.829C22.5977 99.825 21.3111 97.043 24.1755 91.9686C23.3395 98.2119 24.767 100.731 29.9308 103.872Z" fill="#921A10"/>
<path d="M89.4015 73.7832C92.7833 71.5347 95.7444 69.4719 98.6185 67.3821L88.3005 77.427L87.2957 65.8497C88.0507 68.6601 88.6978 71.0913 89.4015 73.7832Z" fill="#921A10"/>
<path fill-rule="evenodd" clip-rule="evenodd" d="M10.1066 134.952C9.05 136.706 10.7462 154.46 12.0255 163.387C16.9725 175.284 21.3154 180.95 29.9308 190.5H24.1755C19.8186 186.185 17.1223 182.618 11.08 170.558C11.1519 178.555 11.6379 182.894 12.9408 190.5H6.59004C6.6431 186.114 6.74932 182.064 6.84964 178.239C7.29234 161.359 7.61981 148.874 2.75321 131.315C38.1129 98.2263 8.60685 95.1104 -14.8323 98.2508C-17.699 85.7189 -20.7305 77.5683 -26.3428 62.872L-14.8323 84.6944L-8.43755 71.4687C-8.52923 71.796 -8.61955 72.1174 -8.70837 72.4334L-8.71958 72.4733L-8.72684 72.4991C-10.7961 79.861 -12.0416 84.2921 -10.6757 91.9686H-1.7231C0.56485 87.3285 2.00517 82.5779 4.46588 74.4618L4.67163 73.7832C4.58092 74.2852 4.49162 74.7729 4.40463 75.2478L4.40204 75.262L4.40015 75.2723L4.39973 75.2745C3.18434 81.9094 2.42458 86.057 4.67163 91.9686L17.7808 94.9443C23.6199 80.5326 24.6873 71.1883 26.437 55.8715L26.4384 55.86L26.4404 55.8425L26.4473 55.7821C26.5404 54.9666 26.6355 54.1342 26.7334 53.2833V62.872L25.2216 86.6632L34.0524 74.4618L59.6464 49.7848C47.4288 64.2451 30.1448 83.3646 24.1755 91.9686C21.3111 97.043 22.5977 99.825 27.8266 107.829C42.7129 96.2645 45.7731 93.0145 52.632 84.6944L83.6461 73.7832C85.793 67.9287 85.6046 64.6004 85.2949 59.1283C85.2785 58.8394 85.2618 58.5446 85.2451 58.243L86.014 58.7294C86.6545 61.1023 86.7969 63.9926 87.2957 65.8497L88.3005 77.427L98.6185 67.3821C104.031 63.4469 109.134 59.4161 116.156 53.8701L116.899 53.2833C103.921 67.5745 96.7872 75.3679 89.4015 81.0572H83.6461C69.9823 79.5606 62.8969 82.2438 51.033 91.9686C43.066 96.5837 19.3069 119.683 10.1066 134.952Z" fill="#B51E17"/>
<path d="M27.8266 79.3512L34.0524 74.4618L25.2216 86.6632L26.7334 62.872L27.8266 79.3512Z" fill="#921A10"/>
<path d="M-20.1768 69.0096C-7.40065 62.2657 0.814413 61.869 11.7115 69.0678C0.689891 67.0149 1.98519 69.7695 -6.38511 69.8668C-14.4535 67.0632 -14.6545 70.0554 -20.1768 69.0096Z" fill="#A8711D"/>
<path d="M-11.0325 71.2662C-13.0798 71.0782 -18.112 70.6643 -20.1768 69.0096C-14.6545 70.0554 -14.4535 67.0632 -6.38511 69.8668C1.98519 69.7695 0.689891 67.0149 11.7115 69.0678C1.58054 73.8347 -0.863993 73.414 -11.0325 71.2662Z" fill="#921A10"/>
<path d="M-23.3372 74.473C-3.59902 68.437 8.09006 70.1131 21.6294 83.2333C6.60484 77.338 7.731 81.5761 -4.10087 79.4355C-14.7686 73.285 -15.8136 77.4511 -23.3372 74.473Z" fill="#21CD88"/>
<path d="M-11.0126 80.1448C-13.8526 79.3224 -20.8457 77.3691 -23.3372 74.473C-15.8136 77.4511 -14.7686 73.285 -4.10087 79.4355C7.731 81.5761 6.60484 77.338 21.6294 83.2333C6.12566 87.2004 2.78446 85.9417 -11.0126 80.1448Z" fill="#0F9961"/>
<path d="M33.6463 29.6439C33.6463 29.4668 82.0352 -5.73805 104.517 21.5982C89.9034 25.7356 83.7184 28.6402 75.3978 34.5593C95.9582 26.8885 107.42 25.5914 127.805 26.697C139.759 31.0599 155.64 38.2706 166.091 48.5129C143.122 50.6942 126.984 53.4864 114.388 55.9353C57.8407 61.5718 63.8358 45.8514 31.291 38.7662C35.7296 35.1946 39.5338 33.4753 50.3469 31.2381L33.6463 29.6439Z" fill="#21CD88"/>
<path d="M-49.0004 48.5133C-0.743591 2.33019 35.0231 -9.98444 91.7565 7.76239C40.662 12.8789 49.6891 23.3658 12.8775 34.5593C-26.0906 32.5662 -23.3789 46.0259 -49.0004 48.5133Z" fill="#21CD88"/>
<path d="M-37.9008 67.3592C-34.149 59.4429 -30.8983 55.2329 -20.9548 48.5129C-3.8231 32.567 23.9001 38.6403 42.2495 55.3319C16.065 56.9959 0.120178 73.3333 -37.9008 67.3592Z" fill="#21CD88"/>
<path d="M122.607 19.4162L111.441 21.5982C111.441 21.5982 118.41 23.268 127.805 26.697C107.42 25.5914 95.9582 26.8885 75.3978 34.5593C83.7184 28.6402 89.9034 25.7356 104.517 21.5982C82.0352 -5.73805 33.6463 29.4668 33.6463 29.6439L50.3469 31.2381C39.5338 33.4753 35.7296 35.1946 31.291 38.7662C63.8358 45.8514 57.8407 61.5718 114.388 55.9353C86.2334 61.4089 71.7262 63.9437 42.2495 55.3319C40.9383 54.9488 43.6392 55.7648 42.2495 55.3319C23.9001 38.6403 -3.8231 32.567 -20.9548 48.5129C-25.0013 42.4162 -37.9008 53.1585 -49.0004 48.5133C-23.3789 46.0259 -26.0906 32.5662 12.8775 34.5593C49.6891 23.3658 40.662 12.8789 91.7565 7.76239C101.412 10.7826 111.643 14.6735 122.607 19.4162Z" fill="#0F9961"/>
<path d="M-37.9008 67.3592C0.120178 73.3333 16.065 56.9959 42.2495 55.3319C40.9383 54.9488 43.6392 55.7648 42.2495 55.3319C42.2495 55.3319 24.2965 64.6276 8.8446 69.5809C-8.61046 75.1764 -37.9008 67.3592 -37.9008 67.3592Z" fill="#0F9961"/>
<path d="M302.906 155.878C302.476 159.704 297.124 165.843 298.47 172.479C302.49 181.084 296.855 189.68 297.95 196.862L289.618 198.133C290.329 187.581 291.646 168.426 288.215 158.506L302.906 155.878Z" fill="#B51E17"/>
<path fill-rule="evenodd" clip-rule="evenodd" d="M254.488 188.406L258.438 178.585L262.187 178.013C260.806 181.64 264.912 198.42 266.943 201.592L258.627 202.86C257.531 195.678 254.488 188.406 254.488 188.406Z" fill="#B51E17"/>
<path d="M302.906 155.878L288.215 158.506L276.433 142.123C278.236 141.51 278.836 141.232 279.342 140.905L302.906 155.878Z" fill="#B51E17"/>
<path d="M306.134 141.545C306.134 141.545 307.862 140.936 308.643 141.528C309.319 142.039 309.422 143.553 309.422 143.553C309.422 143.553 308.17 143.46 307.507 143.065C306.82 142.656 306.134 141.545 306.134 141.545Z" fill="#B51E17"/>
<path d="M302.255 138.959C301.518 136.8 301.09 135.589 299.813 133.442C300.085 133.392 300.354 133.347 300.62 133.306C301.799 135.433 301.999 136.695 302.255 138.959Z" fill="#B51E17"/>
<path d="M306.23 155.184C306.298 153.969 306.135 153.25 305.785 151.958C306.433 153.431 306.76 154.272 307.149 155.828C306.851 155.637 306.545 155.423 306.23 155.184Z" fill="#B51E17"/>
<path d="M315.319 153.599C315.704 154.845 315.948 155.534 316.544 156.745C316.347 156.772 316.31 156.783 316.122 156.809C315.699 155.52 315.431 154.834 315.319 153.599Z" fill="#B51E17"/>
<path fill-rule="evenodd" clip-rule="evenodd" d="M330.532 167.146C336.36 169.783 341.367 156.876 341.367 156.876C341.717 159.172 342.255 159.664 344.107 159.592C343.523 160.554 342.985 161.483 342.472 162.369C339.374 167.719 337.182 171.505 331.233 171.74C324.299 172.014 316.544 156.745 316.544 156.745C315.948 155.534 315.704 154.845 315.319 153.599C315.431 154.834 315.699 155.52 316.122 156.809C312.011 157.365 309.758 157.495 307.149 155.828C306.76 154.272 306.433 153.431 305.785 151.958C306.135 153.25 306.298 153.969 306.23 155.184C304.424 158.593 297.981 157.001 292.465 155.924L285.264 149.286C285.264 149.286 280.272 143.954 279.195 140.968C278.161 138.104 278.507 136.525 279.325 133.172C280.44 128.6 280.876 127.572 284.894 127.1C290.852 127.1 294.12 128.469 299.813 133.442C301.09 135.589 301.518 136.8 302.255 138.959C301.999 136.695 301.799 135.433 300.62 133.306C317.884 130.66 322.814 146.812 326.157 157.765C327.619 162.556 328.777 166.353 330.532 167.146ZM308.643 141.528C307.862 140.936 306.134 141.545 306.134 141.545C306.134 141.545 306.82 142.656 307.507 143.065C308.17 143.46 309.422 143.553 309.422 143.553C309.422 143.553 309.319 142.039 308.643 141.528Z" fill="#EE5818"/>
<path d="M237.14 174.503C239.49 171.952 240.636 169.746 241.727 164.238C242.04 162.595 242.489 161.046 243.04 159.594L243.012 160.141C242.85 163.287 242.752 165.21 243.185 168.717C243.185 168.717 239.119 174.434 238.091 175.236C237.977 175.325 237.883 175.399 237.813 175.457C235.719 177.195 232.533 178.903 232.455 178.386C232.421 178.166 232.843 177.89 233.521 177.448C234.428 176.855 235.794 175.964 237.14 174.503Z" fill="#B51E17"/>
<path d="M310.458 195.279L302.142 196.547C302.077 187.516 298.218 180.963 291.83 174.588C281.707 179.226 266.587 181.533 258.425 178.588C259.656 184.541 256.893 188.306 254.927 190.983C254.685 191.313 254.455 191.626 254.246 191.925C252.046 195.073 251.776 199.02 252.622 204.1L242.419 205.656C245.212 195.434 243.591 174.054 243.185 168.717C242.752 165.21 242.85 163.287 243.012 160.141L243.04 159.594C246.277 151.067 253.044 145.902 256.58 144.737C259.156 143.888 261.483 143.88 263.938 143.871C265.703 143.864 267.535 143.857 269.574 143.538C269.808 143.502 270.031 143.467 270.246 143.434C273.809 142.878 275.734 142.441 278.267 141.457C282.765 148.12 286.103 152.253 292.202 156.738C293.743 157.87 299.468 158.724 302.434 157.885C309.219 171.936 308.021 176.76 310.458 195.279Z" fill="#EE5818"/>
</svg>
